<?xml version="1.0" encoding="UTF-8" standalone="no"?>
<svg
   id="svg"
   version="1.1"
   width="400"
   height="400"
   viewBox="0, 0, 400,400"
   sodipodi:docname="image2vector.svg"
   inkscape:version="1.3.2 (091e20e, 2023-11-25)"
   xmlns:inkscape="http://www.inkscape.org/namespaces/inkscape"
   xmlns:sodipodi="http://sodipodi.sourceforge.net/DTD/sodipodi-0.dtd"
   xmlns:xlink="http://www.w3.org/1999/xlink"
   xmlns="http://www.w3.org/2000/svg"
   xmlns:svg="http://www.w3.org/2000/svg">
  <defs
     id="defs1">
    <linearGradient
       id="swatch14"
       inkscape:swatch="solid"
       inkscape:label="Red lip">
      <stop
         style="stop-color:#ce242c;stop-opacity:1;"
         offset="0"
         id="stop14" />
    </linearGradient>
    <linearGradient
       id="swatch1"
       inkscape:swatch="solid"
       inkscape:label="BG">
      <stop
         style="stop-color:#fef0ed;stop-opacity:1;"
         offset="0"
         id="stop1" />
    </linearGradient>
    <linearGradient
       inkscape:collect="always"
       xlink:href="#swatch1"
       id="linearGradient1"
       x1="-94.838982"
       y1="271.50864"
       x2="208.90098"
       y2="271.50864"
       gradientUnits="userSpaceOnUse"
       gradientTransform="matrix(1.316916,0,0,1.3839812,124.89497,-175.76284)" />
  </defs>
  <sodipodi:namedview
     id="namedview1"
     pagecolor="#ffffff"
     bordercolor="#000000"
     borderopacity="0.25"
     inkscape:showpageshadow="2"
     inkscape:pageopacity="0.0"
     inkscape:pagecheckerboard="0"
     inkscape:deskcolor="#d1d1d1"
     inkscape:zoom="2.4596453"
     inkscape:cx="212.63228"
     inkscape:cy="210.80275"
     inkscape:window-width="1512"
     inkscape:window-height="920"
     inkscape:window-x="0"
     inkscape:window-y="34"
     inkscape:window-maximized="0"
     inkscape:current-layer="svg" />
  <rect
     style="display:inline;fill:#1a1a1a;fill-opacity:1"
     id="rect2"
     width="400"
     height="400"
     x="0"
     y="0"
     inkscape:label="BLACK GUIDE"
     sodipodi:insensitive="true" />
  <rect
     style="display:inline;fill:url(#linearGradient1);stroke-width:1.35003"
     id="rect1"
     width="400"
     height="400"
     x="0"
     y="0"
     inkscape:label="BG"
     sodipodi:insensitive="true" />
  <path
     id="path8"
     style="display:inline;fill:url(#swatch14)"
     inkscape:label="Red lip"
     d="m 151.55469,114.8125 c -2.88509,0.0132 -5.77135,0.0988 -8.65235,0.22656 -35.78768,4.3617 -71.23234,11.55725 -107.091793,15.35547 0,0 -10.750003,1.09374 -10.945315,1.17968 0.07422,0.18359 5.291016,8.12695 5.291016,8.12695 2.691997,3.339 9.14394,12.87446 11.460938,16.93945 3.019996,5.295 3.487454,6.12707 4.939453,8.78907 1.446998,2.65199 9.035547,17.95625 9.685547,19.53125 3.782541,7.90425 6.676583,16.22684 10.646018,24.04052 2.239134,6.3684 8.015779,15.55146 13.133327,22.86187 9.547336,13.67477 20.663579,27.11193 35.537109,35.12891 12.45038,6.21559 3.05151,3.03981 39.04688,14.97851 11.04855,2.02242 23.3513,3.37109 35.08789,3.00782 36.61439,0.72523 76.77378,-1.44569 106.52344,-25.47657 19.67499,-16.88747 33.70499,-39.58723 42.08398,-63.99414 l 8.96484,-21.34375 c 0,-0.402 5.44355,-11.43173 6.93555,-14.05273 0.442,-0.776 0.98694,-1.74149 1.21094,-2.14649 3.718,-6.70699 7.62904,-12.67546 12.08203,-18.43945 1.24206,-1.55178 2.01735,-2.51186 3.27734,-3.89067 1.81357,-2.61951 3.79918,-1.23394 4.02149,-7.33204 -14.06195,1.78551 -28.27979,0.92503 -42.12891,-2.2207 -31.37051,-5.30609 -63.08719,-11.26971 -95.02539,-10.09375 -20.01356,2.00797 -40.47745,7.9475 -60.34375,1.50977 -8.44091,-2.10852 -17.08498,-2.72515 -25.74023,-2.68555 z"
     sodipodi:nodetypes="ccccccccccccccccccccccccsc"
     sodipodi:insensitive="true" />
  <path
     id="path14"
     d="m 201.9209,168.06163 c 0,0 -103.305439,-17.38353 -124.2739,-21.84463 3.474814,21.58604 25.83641,39.78541 42.41547,53.14555 11.50928,7.17474 24.7995,15.01241 37.75053,18.99245 39.67202,9.665 66.18445,7.54296 101.562,-6.681 30.14182,-14.54911 66.04703,-58.31492 64.258,-66.557"
     stroke="none"
     fill="#620000"
     fill-rule="evenodd"
     style="display:inline"
     inkscape:label="Throat"
     sodipodi:nodetypes="cccccc"
     sodipodi:insensitive="true" />
  <path
     id="path3"
     d="m 105.664,121.492 c -1.93444,0.42787 -8.007821,1.40779 -12.109,2.338 -2.62554,0.59533 -4.673605,0.9744 -7.227,1.587 -0.967,0.231 -2.329,0.515 -3.027,0.631 -0.698,0.115 -1.27,0.33 -1.27,0.478 0,0.148 5.581,-0.391 12.403,-1.198 6.821,-0.806 14.418,-1.663 16.882,-1.904 5.53203,-0.53883 16.92349,-2.38814 20.715,-3.445 3.29537,-0.9983 6.61651,-1.89512 9.961,-2.711 l -2.148,0.028 m 116.992,1.403 c -1.134,0.277 -1.115,0.295 0.586,0.543 10.72363,1.89804 21.58024,2.59741 32.422,3.458 9.853,0.835 10.156,0.849 10.156,0.448 -1.59539,-0.83613 -3.66078,-0.81244 -5.469,-1.075 -11.50854,-1.87686 -23.16698,-2.42853 -34.765,-3.49 -0.967,-0.094 -2.286,-0.042 -2.93,0.116 m 62.263,27.176 c -0.113,0.113 -2.831,0.3 -6.039,0.414 -3.209,0.115 -7.679,0.377 -9.935,0.583 -2.256,0.206 -8.057,0.647 -12.891,0.979 -3.58789,0.24681 -6.57036,0.45304 -9.09063,0.62916 -8.26286,0.57741 -11.55769,0.83123 -14.93237,1.13084 -5.159,0.45803 -17.498,1.365 -26.367,1.938 -3.545,0.229 -8.467,0.593 -10.938,0.808 -21.254,1.857 -32.563,1.927 -60.742,0.377 -11.901,-0.654 -14.476,-0.758 -13.852,-0.558 1.779,0.572 2.443,3.245 2.256,9.093 -0.192,6.028 0.077,6.64 1.312,2.983 2.4,-7.11 8.016,-10.838 14.976,-9.942 1.501,0.194 4.839,0.361 7.417,0.372 11.3,0.047 16.993,2.529 16.993,7.408 0,0.232 0.164,0.726 0.366,1.099 0.451,0.835 1.978,5.072 3.374,9.362 1.222,3.756 1.578,3.793 1.911,0.199 0.998,-10.789 4.297,-15.445 12.122,-17.108 15.327,-3.258 24.471,-3.952 27.461,-2.084 1.358,0.848 2.637,4.57 3.608,10.505 0.952,5.814 1.046,6.211 1.113,4.687 0.36,-8.305 3.606,-15.537 7.662,-17.071 2.462,-0.932 16.871,-1.492 20.199,-0.785 2.236,0.474 3.824,2.296 3.824,4.386 0,0.938 0.176,1.814 0.391,1.947 0.215,0.132 0.391,1.01 0.391,1.95 0,0.94 0.203,2.204 0.451,2.809 l 0.452,1.1 0.3,-1.367 c 1.586,-7.23 4.585,-11.304 8.672,-11.781 15.111,-1.762 16.342,-1.524 16.856,3.267 0.327,3.053 0.81,3.991 1.468,2.85 1.458,-2.526 8.908,-8.008 10.883,-8.008 0.271,0 1.068,-0.44 1.773,-0.977 1.713,-1.306 2.113,-1.232 2.113,0.391 0,0.752 -0.176,1.367 -0.39,1.367 -0.215,0 -0.391,0.244 -0.391,0.541 0,0.927 -3.619,6.862 -4.395,7.207 -0.161,0.071 -0.292,0.364 -0.292,0.651 0,0.286 -0.15,0.579 -0.333,0.651 -0.405,0.159 -2.511,3.471 -2.325,3.657 0.672,0.672 8.505,-12.133 8.712,-14.267 l 0.391,-2.151 c -2.23643,0.40623 -3.01144,0.52184 -4.534,0.758 m -241.337,1.684 c 0.015,0.376 0.194,1.035 0.398,1.464 0.295,0.623 0.332,0.527 0.181,-0.469 l -0.189,-1.25 2.233,-0.141 2.232,-0.14 -2.441,-0.074 c -2.102,-0.064 -2.438,0.021 -2.414,0.61 m 6.389,1.068 c 0.587,0.865 1.005,2.029 1.005,2.795 0,1.549 0.465,1.639 2.112,0.41 1.352,-1.01 4.12,-2.335 5.896,-2.823 2.388,-0.656 24.48,0.645 25.529,1.503 1.007,0.824 1.165,2.128 0.787,6.521 -0.451,5.247 -0.11,5.986 1.407,3.05 4.181,-8.089 7.756,-10.133 15.636,-8.941 2.876,0.434 15.325,0.97 15.002,0.644 -0.129,-0.129 -3.381,-0.414 -7.227,-0.635 -9.889,-0.566 -25.753,-1.557 -30.821,-1.925 -2.364,-0.172 -8.604,-0.588 -13.868,-0.924 -5.263,-0.337 -11.121,-0.734 -13.017,-0.884 l -3.447,-0.272 1.006,1.481 m -5.413,2.154 c 0.138,0.537 1.199,2.533 2.358,4.435 1.159,1.902 2.107,3.616 2.107,3.808 0,0.193 0.264,0.351 0.586,0.351 0.322,0 0.586,-0.205 0.586,-0.456 0,-0.25 -0.119,-0.337 -0.264,-0.192 -0.261,0.262 -1.394,-1.174 -2.108,-2.672 -0.205,-0.43 -0.751,-1.397 -1.213,-2.149 -0.463,-0.752 -1.17,-1.982 -1.572,-2.734 -0.527,-0.987 -0.661,-1.096 -0.48,-0.391 m 5.887,5.74 c -0.138,0.137 -0.247,0.616 -0.244,1.064 0.004,0.608 0.091,0.679 0.343,0.281 0.285,-0.45 0.371,-0.45 0.549,0 0.125,0.313 0.225,0.18 0.243,-0.323 0.032,-0.891 -0.459,-1.454 -0.891,-1.022"
     stroke="none"
     fill="#d092a0"
     fill-rule="evenodd"
     style="display:inline"
     inkscape:label="IN PROGRESS Gums, lip shine"
     sodipodi:nodetypes="ccccsccccccscscccccscssscccccccscccccccccscsccccccscssscscsccccccccccccsccccccccccccccssssccccccccccc"
     sodipodi:insensitive="true" />
  <path
     id="path5"
     d="m 24.865232,131.57421 c 1.9982,8.82292 13.750329,17.3043 17.771506,26.8555 9.752783,16.37864 16.459154,34.20629 24.961262,51.15329 -1.918184,-8.64202 -4.239245,-20.34502 4.144047,-24.51598 4.648328,-4.20398 11.319695,-8.34478 17.597953,-3.03402 4.23064,2.83126 15.69658,3.86564 10.91675,0.23525 16.66976,16.46209 36.08942,31.14502 59.31338,36.58163 37.13257,11.05072 78.79487,6.34245 112.305,-13.09463 -10.04977,4.38254 -29.04796,15.08647 -38.92713,13.62975 6.3309,-1.9994 20.50072,-17.57409 5.25722,-15.59798 -16.60599,-0.2206 -33.12783,2.56321 -49.74992,1.00423 -11.99555,0.46037 -25.2884,-1.49495 -36.2083,4.36375 -3.33212,6.87313 24.91983,12.94153 6.909,8.775 -18.2934,-4.55155 -35.02277,-14.01422 -48.66529,-27.03609 -8.97339,-8.48616 -23.290683,-23.28884 -30.590063,-36.44595 L 77.647,146.217 c 0,0 -34.558083,-5.02363 -47.569,-9.498 -2.67376,0.41611 -4.400203,-6.25786 -5.212768,-5.14479 z M 369.358,136.292 c -14.14945,6.74165 -30.09132,9.21119 -45.725,8.825 0.51452,8.26847 -17.44159,19.9453 -0.195,18.949 8.96264,-0.0593 18.02943,6.22563 23.828,10.099 5.87494,-13.59777 13.77792,-26.20181 22.54,-38.083 z M 170.28,220.169 c -3.46997,0.72717 -4.81095,-1.42488 0,0 z m 1.986,0.534 c -2.04614,1.43904 -2.05076,-1.43765 0,0 z m 57.422,0 c -1.52229,1.42733 -1.52744,-1.42582 0,0 z m -54.004,0.66 c -3.02733,0.60904 -0.58116,-0.62955 0,0 z m 7.342,11.03 c 4.08886,1.31132 15.13413,7.97645 14.24,4.399 -7.91335,-6.09391 21.23912,2.40834 4.08145,1.34491 7.6511,4.61991 23.6693,-10.34372 7.24655,-4.54291 -8.7149,1.74759 -17.0278,-1.57106 -25.568,-1.201 z m 10.919,2.373 c -1.39355,1.50863 -2.14556,-1.29535 0,0 z"
     stroke="none"
     fill="#9d141e"
     fill-rule="evenodd"
     style="display:inline"
     inkscape:label="IN PROGRESS Lip shadow, tongue"
     sodipodi:nodetypes="ccccccccccccccccccccccccccccccccccccccc"
     sodipodi:insensitive="true" />
  <path
     id="path4"
     d="m 289.453,155.845 c -0.537,0.18 -1.801,0.345 -2.809,0.366 -1.008,0.021 -1.941,0.215 -2.074,0.43 -0.132,0.214 -0.575,0.39 -0.984,0.39 -0.543,0 -0.862,0.446 -1.188,1.66 -0.245,0.913 -0.603,2.064 -0.797,2.558 -0.193,0.493 -0.351,1.402 -0.351,2.019 0,3.118 -1.41,2.868 -1.754,-0.312 -0.554,-5.129 -0.513,-5.019 -1.789,-4.832 -0.635,0.093 -1.25,0.325 -1.368,0.515 -0.117,0.19 -0.557,0.345 -0.977,0.345 -0.42,0 -1.068,0.168 -1.442,0.374 -0.373,0.205 -2.084,0.829 -3.803,1.385 -3,0.971 -3.481,1.146 -5.664,2.063 -0.537,0.225 -1.416,0.517 -1.953,0.648 -0.537,0.13 -1.943,0.515 -3.125,0.855 -1.182,0.339 -2.852,0.761 -3.711,0.936 -0.859,0.175 -2.705,0.577 -4.101,0.893 -1.397,0.316 -2.663,0.5 -2.813,0.41 -0.604,-0.362 -1.094,1.524 -1.099,4.227 -0.003,1.572 -0.111,3.251 -0.24,3.732 -0.456,1.701 -0.927,0.408 -0.932,-2.557 -0.008,-4.548 -0.16,-4.881 -2.1,-4.608 -6.134,0.864 -9.416,1.125 -15.082,1.201 -15.118,0.203 -23.906,0.205 -24.227,0.007 -0.643,-0.398 -1.289,1.549 -1.582,4.766 -0.161,1.766 -0.411,3.748 -0.555,4.404 -0.292,1.327 -0.98,1.239 -0.98,-0.126 0,-0.481 -0.147,-1.042 -0.328,-1.246 -0.18,-0.204 -0.893,-2.153 -1.584,-4.331 l -1.256,-3.959 -13.162,-0.27 c -7.239,-0.148 -16.456,-0.388 -20.482,-0.533 -8.324,-0.299 -7.714,-0.542 -8.08,3.222 -0.343,3.521 -1.143,3.271 -1.282,-0.399 l -0.115,-3.023 -1.953,-0.152 c -1.074,-0.084 -2.129,-0.375 -2.344,-0.647 -2.309,-2.926 -10.95,-4.521 -14.499,-2.676 -3.157,1.641 -8.352,7.159 -8.352,8.871 0,0.346 -0.22,0.602 -0.489,0.567 -1.077,-0.14 -1.378,0.099 -2.246,1.787 -0.497,0.966 -1.129,1.758 -1.405,1.758 -1.022,0 -0.992,0.877 0.068,1.984 0.601,0.627 1.324,1.141 1.606,1.141 0.282,0 0.513,0.141 0.513,0.313 0,0.468 3.779,2.421 4.684,2.421 0.431,0 0.784,0.176 0.784,0.391 0,0.214 0.429,0.39 0.954,0.39 0.524,0 1.062,0.176 1.195,0.391 0.132,0.215 0.66,0.39 1.172,0.39 0.511,0 1.028,0.16 1.149,0.354 0.12,0.195 1.097,0.475 2.171,0.623 1.074,0.148 2.051,0.428 2.171,0.622 0.12,0.195 0.725,0.355 1.345,0.355 0.619,0 1.234,0.175 1.367,0.39 0.132,0.215 0.831,0.391 1.553,0.391 0.721,0 1.37,0.177 1.443,0.394 0.072,0.217 2.064,0.503 4.427,0.636 5.364,0.302 5.8,0.02 5.222,-3.374 -0.337,-1.98 -0.198,-5.159 0.321,-7.341 0.363,-1.529 1.085,-0.707 1.328,1.512 0.555,5.083 1.219,9.599 1.516,10.321 1.095,2.664 1.641,3.671 2.48,4.577 1.159,1.25 4.771,2.944 7.005,3.285 0.912,0.139 1.834,0.385 2.048,0.546 0.392,0.294 1.644,0.508 5.665,0.97 1.181,0.136 2.5,0.401 2.929,0.589 1.229,0.538 13.973,1.258 16.896,0.954 4.823,-0.5 5.627,-1.473 5.933,-7.179 0.276,-5.149 0.905,-5.55 1.544,-0.984 0.472,3.375 1.646,6.016 2.678,6.026 0.269,0.003 0.488,0.145 0.488,0.315 0,2.559 29.77,0.284 36.719,-2.805 2.549,-1.133 2.899,-2.126 3.369,-9.539 0.254,-4.012 0.784,-4.026 1.913,-0.048 1.53,5.394 2.905,7.395 5.081,7.395 0.72,0 1.418,-0.176 1.551,-0.391 0.133,-0.215 0.836,-0.39 1.563,-0.39 0.726,0 1.417,-0.157 1.535,-0.348 0.118,-0.191 0.788,-0.442 1.488,-0.557 2.078,-0.342 5.288,-1.222 5.603,-1.537 0.161,-0.161 0.705,-0.293 1.21,-0.293 0.504,0 1.222,-0.159 1.595,-0.354 1.103,-0.577 4.796,-1.599 5.778,-1.599 0.5,0 1.017,-0.176 1.15,-0.391 0.133,-0.214 0.518,-0.39 0.857,-0.39 0.858,0 2.414,-1.775 2.669,-3.044 0.117,-0.582 0.382,-1.598 0.589,-2.257 0.503,-1.599 0.48,-4.596 -0.039,-5.115 -0.556,-0.556 -0.299,-3.739 0.318,-3.942 0.329,-0.108 0.489,0.29 0.489,1.216 0,0.757 0.176,1.486 0.39,1.618 0.215,0.133 0.391,1.286 0.391,2.562 0,1.287 0.174,2.321 0.391,2.321 0.214,0 0.39,0.237 0.39,0.526 0,1.442 1.473,1.985 4.017,1.481 1.336,-0.265 3.088,-0.579 3.893,-0.699 0.806,-0.12 1.465,-0.357 1.465,-0.527 0,-0.169 0.659,-0.398 1.465,-0.508 2.288,-0.313 5.333,-1.101 5.742,-1.486 0.204,-0.192 0.776,-0.349 1.27,-0.349 0.494,0 0.898,-0.176 0.898,-0.391 0,-0.215 0.308,-0.396 0.684,-0.403 0.376,-0.006 1.248,-0.753 1.938,-1.66 0.69,-0.906 1.701,-2.159 2.246,-2.783 0.546,-0.624 1.012,-1.327 1.037,-1.562 0.024,-0.236 0.086,-0.604 0.135,-0.819 0.05,-0.214 0.118,-1.577 0.151,-3.027 0.059,-2.611 0.637,-3.544 1.028,-1.66 0.7,3.371 0.493,3.224 1.871,1.319 0.68,-0.94 1.336,-1.798 1.457,-1.905 1.099,-0.972 2.821,-4.465 2.479,-5.024 -0.482,-0.785 -5.556,-3.391 -7.278,-3.738 -0.69,-0.138 -2.134,-0.438 -3.209,-0.666 -2.485,-0.527 -12.577,-0.783 -13.867,-0.352"
     stroke="none"
     fill="#efe6dc"
     fill-rule="evenodd"
     style="display:inline"
     inkscape:label="OLD Teeth"
     sodipodi:nodetypes="cscsccscscscccccsccccccccccscscccccccccsccscssssscscscscscccccccccccccccscccsssscsscscsscscscsssccscssscccccccscccsc"
     sodipodi:insensitive="true" />
  <path
     id="path6"
     d="m 320.508,147.082 c -0.645,0.529 -1.41,0.962 -1.701,0.963 -2.016,0.007 -9.448,5.459 -10.92,8.01 -0.658,1.141 -1.141,0.203 -1.468,-2.85 -0.514,-4.791 -1.745,-5.029 -16.856,-3.267 -2.935,0.343 -4.125,1.321 -6.229,5.124 -1.349,2.438 -1.768,3.581 -2.443,6.657 l -0.3,1.367 -0.452,-1.1 c -0.248,-0.605 -0.451,-1.869 -0.451,-2.809 0,-0.94 -0.176,-1.818 -0.391,-1.95 -0.215,-0.133 -0.391,-1.009 -0.391,-1.947 0,-2.09 -1.588,-3.912 -3.824,-4.386 -3.328,-0.707 -17.737,-0.147 -20.199,0.785 -4.056,1.534 -7.302,8.766 -7.662,17.071 -0.067,1.524 -0.161,1.127 -1.113,-4.687 -0.971,-5.935 -2.25,-9.657 -3.608,-10.505 -2.99,-1.868 -12.134,-1.174 -27.461,2.084 -7.825,1.663 -11.124,6.319 -12.122,17.108 -0.333,3.594 -0.689,3.557 -1.911,-0.199 -1.396,-4.29 -2.923,-8.527 -3.374,-9.362 -0.202,-0.373 -0.366,-0.867 -0.366,-1.099 0,-4.879 -5.693,-7.361 -16.993,-7.408 -2.578,-0.011 -5.916,-0.178 -7.417,-0.372 -6.96,-0.896 -12.576,2.832 -14.976,9.942 -1.233,3.653 -1.497,3.034 -1.312,-3.085 0.173,-5.749 -0.006,-6.634 -1.778,-8.816 -0.084,-0.103 -4.14,-0.406 -9.014,-0.672 -4.874,-0.267 -10.621,-0.599 -12.771,-0.739 l -3.908,-0.254 -2.034,1.608 c -2.285,1.806 -4.579,4.699 -6.176,7.789 -1.517,2.936 -1.858,2.197 -1.407,-3.05 0.378,-4.393 0.22,-5.697 -0.787,-6.521 -1.049,-0.858 -23.141,-2.159 -25.529,-1.503 -1.776,0.488 -4.544,1.813 -5.896,2.823 -1.646,1.228 -2.112,1.139 -2.112,-0.407 0,-2.636 -1.415,-3.948 -4.402,-4.079 l -2.617,-0.116 0.254,1.287 c 0.313,1.585 0.997,3.151 2.269,5.194 0.535,0.859 1.14,1.914 1.344,2.344 1.386,2.913 2.099,3.277 2.446,1.249 0.242,-1.416 0.909,-0.633 1.172,1.376 0.458,3.487 0.926,4.783 2.633,7.298 1.698,2.499 2.44,2.981 5.495,3.567 2.31,0.443 4.074,0.871 8.789,2.13 7.143,1.908 11.753,2.934 13.175,2.934 1.134,0 2.535,-1.574 2.07,-2.326 -0.139,-0.224 -0.078,-0.408 0.134,-0.408 0.212,0 0.497,-1.011 0.633,-2.246 0.136,-1.235 0.352,-2.774 0.48,-3.418 l 0.231,-1.172 0.337,1.172 c 0.319,1.107 0.532,2.672 0.666,4.883 0.049,0.802 0.134,0.872 0.475,0.39 0.32,-0.451 0.371,-0.316 0.224,0.586 -0.253,1.555 1.083,4.552 1.891,4.242 0.32,-0.123 0.583,-0.029 0.583,0.209 0,0.238 -0.211,0.432 -0.468,0.432 -0.257,0 0.139,0.63 0.879,1.399 1.544,1.605 2.714,2.355 2.714,1.74 0,-0.223 -0.231,-0.404 -0.513,-0.404 -0.282,0 -1.005,-0.514 -1.606,-1.141 -1.06,-1.107 -1.09,-1.984 -0.068,-1.984 0.276,0 0.908,-0.792 1.405,-1.758 0.868,-1.688 1.169,-1.927 2.246,-1.787 0.269,0.035 0.489,-0.221 0.489,-0.567 0,-1.712 5.195,-7.23 8.352,-8.871 3.549,-1.845 12.19,-0.25 14.499,2.676 0.215,0.272 1.27,0.563 2.344,0.647 l 1.953,0.152 0.115,3.023 c 0.139,3.67 0.939,3.92 1.282,0.399 0.366,-3.764 -0.244,-3.521 8.08,-3.222 4.026,0.145 13.243,0.385 20.482,0.533 l 13.162,0.27 1.256,3.959 c 0.691,2.178 1.404,4.127 1.584,4.331 0.181,0.204 0.328,0.765 0.328,1.246 0,1.365 0.688,1.453 0.98,0.126 0.144,-0.656 0.394,-2.638 0.555,-4.404 0.293,-3.217 0.939,-5.164 1.582,-4.766 0.321,0.198 9.109,0.196 24.227,-0.007 5.666,-0.076 8.948,-0.337 15.082,-1.201 1.94,-0.273 2.092,0.06 2.1,4.608 0.005,2.965 0.476,4.258 0.932,2.557 0.129,-0.481 0.237,-2.16 0.24,-3.732 0.005,-2.703 0.495,-4.589 1.099,-4.227 0.15,0.09 1.416,-0.094 2.813,-0.41 1.396,-0.316 3.242,-0.718 4.101,-0.893 0.859,-0.175 2.529,-0.597 3.711,-0.936 1.182,-0.34 2.588,-0.725 3.125,-0.855 0.537,-0.131 1.416,-0.423 1.953,-0.648 2.183,-0.917 2.664,-1.092 5.664,-2.063 1.719,-0.556 3.43,-1.18 3.803,-1.385 0.374,-0.206 1.022,-0.374 1.442,-0.374 0.42,0 0.86,-0.155 0.977,-0.345 0.118,-0.19 0.733,-0.422 1.368,-0.515 1.276,-0.187 1.235,-0.297 1.789,4.832 0.344,3.18 1.754,3.43 1.754,0.312 0,-0.617 0.158,-1.526 0.351,-2.019 0.194,-0.494 0.552,-1.645 0.797,-2.558 0.326,-1.214 0.645,-1.66 1.188,-1.66 0.409,0 0.836,-0.151 0.951,-0.336 0.581,-0.94 14.622,-1.357 18.588,-0.552 4.691,0.953 8.186,2.3 10.142,3.91 1.1722,1.25491 1.263,1.482 1.761,0.408 0.436,-0.799 1.1,-1.812 1.476,-2.25 0.376,-0.439 0.684,-0.957 0.684,-1.152 0,-0.194 0.131,-0.412 0.292,-0.483 0.776,-0.345 4.395,-6.28 4.395,-7.207 0,-0.297 0.176,-0.541 0.391,-0.541 0.214,0 0.39,-0.615 0.39,-1.367 0,-1.627 -0.515,-1.718 -2.148,-0.379"
     stroke="none"
     fill="#cbbcaf"
     fill-rule="evenodd"
     style="display:inline"
     inkscape:label="OLD Dark teeth"
     sodipodi:nodetypes="ccccccsccscscccccccccsccccccccccccccsccccccccccscsscccccccsscsscscsscccccccccscsccccccscccscccccscccsccscccccscsssc" />
</svg>
